{
	"asset":{
		"generator":"Khronos glTF Blender I/O v4.5.49",
		"version":"2.0"
	},
	"extensionsUsed":[
		"KHR_materials_specular"
	],
	"scene":0,
	"scenes":[
		{
			"name":"Scene",
			"nodes":[
				0
			]
		}
	],
	"nodes":[
		{
			"mesh":0,
			"name":"2025-06-04_Augustus_FullRes",
			"rotation":[
				-0.8450081944465637,
				-0.5261598229408264,
				-0.09530192613601685,
				0.005877445451915264
			],
			"translation":[
				0,
				0.3407577574253082,
				0
			]
		}
	],
	"materials":[
		{
			"doubleSided":true,
			"extensions":{
				"KHR_materials_specular":{
					"specularFactor":0
				}
			},
			"name":"2025-06-04_Augustus_FullRes",
			"pbrMetallicRoughness":{
				"baseColorFactor":[
					0.800000011920929,
					0.800000011920929,
					0.800000011920929,
					1
				],
				"metallicFactor":0
			}
		}
	],
	"meshes":[
		{
			"name":"2025-06-04_Augustus_FullRes",
			"primitives":[
				{
					"attributes":{
						"POSITION":0,
						"NORMAL":1,
						"TEXCOORD_0":2,
						"COLOR_0":3,
						"COLOR_1":4
					},
					"indices":5,
					"material":0
				}
			]
		}
	],
	"accessors":[
		{
			"bufferView":0,
			"componentType":5126,
			"count":76764,
			"max":[
				0.224235400557518,
				0.2930128276348114,
				0.16159233450889587
			],
			"min":[
				-0.3191908001899719,
				-0.23593813180923462,
				-0.16091565787792206
			],
			"type":"VEC3"
		},
		{
			"bufferView":1,
			"componentType":5126,
			"count":76764,
			"type":"VEC3"
		},
		{
			"bufferView":2,
			"componentType":5126,
			"count":76764,
			"type":"VEC2"
		},
		{
			"bufferView":3,
			"componentType":5121,
			"count":76764,
			"normalized":true,
			"type":"VEC4"
		},
		{
			"bufferView":4,
			"componentType":5123,
			"count":76764,
			"normalized":true,
			"type":"VEC4"
		},
		{
			"bufferView":5,
			"componentType":5125,
			"count":402042,
			"type":"SCALAR"
		}
	],
	"bufferViews":[
		{
			"buffer":0,
			"byteLength":921168,
			"byteOffset":0,
			"target":34962
		},
		{
			"buffer":0,
			"byteLength":921168,
			"byteOffset":921168,
			"target":34962
		},
		{
			"buffer":0,
			"byteLength":614112,
			"byteOffset":1842336,
			"target":34962
		},
		{
			"buffer":0,
			"byteLength":307056,
			"byteOffset":2456448,
			"target":34962
		},
		{
			"buffer":0,
			"byteLength":614112,
			"byteOffset":2763504,
			"target":34962
		},
		{
			"buffer":0,
			"byteLength":1608168,
			"byteOffset":3377616,
			"target":34963
		}
	],
	"buffers":[
		{
			"byteLength":4985784,
			"uri":"Augustus_reduced.bin"
		}
	]
}
