{
	"asset":{
		"generator":"Khronos glTF Blender I/O v4.3.47",
		"version":"2.0"
	},
	"scene":0,
	"scenes":[
		{
			"name":"Scene",
			"nodes":[
				0
			]
		}
	],
	"nodes":[
		{
			"mesh":0,
			"name":"Fast fusion 1",
			"translation":[
				0.3948383033275604,
				0.3167323172092438,
				2.321131467819214
			]
		}
	],
	"meshes":[
		{
			"name":"Fast fusion 1",
			"primitives":[
				{
					"attributes":{
						"POSITION":0,
						"NORMAL":1
					},
					"indices":2
				}
			]
		}
	],
	"accessors":[
		{
			"bufferView":0,
			"componentType":5126,
			"count":164070,
			"max":[
				0.9957374930381775,
				0.6806426644325256,
				1.9924156665802002
			],
			"min":[
				-1.1771948337554932,
				-0.8146877288818359,
				-2.313344717025757
			],
			"type":"VEC3"
		},
		{
			"bufferView":1,
			"componentType":5126,
			"count":164070,
			"type":"VEC3"
		},
		{
			"bufferView":2,
			"componentType":5125,
			"count":164088,
			"type":"SCALAR"
		}
	],
	"bufferViews":[
		{
			"buffer":0,
			"byteLength":1968840,
			"byteOffset":0,
			"target":34962
		},
		{
			"buffer":0,
			"byteLength":1968840,
			"byteOffset":1968840,
			"target":34962
		},
		{
			"buffer":0,
			"byteLength":656352,
			"byteOffset":3937680,
			"target":34963
		}
	],
	"buffers":[
		{
			"byteLength":4594032,
			"uri":"evensmallerzeus.bin"
		}
	]
}
