{
	"asset":{
		"generator":"Khronos glTF Blender I/O v4.5.49",
		"version":"2.0"
	},
	"scene":0,
	"scenes":[
		{
			"name":"Scene",
			"nodes":[
				0
			]
		}
	],
	"nodes":[
		{
			"mesh":0,
			"name":"Fast fusion 1",
			"rotation":[
				0.0128483222797513,
				-0.23604172468185425,
				0.005398865323513746,
				0.9716429710388184
			],
			"scale":[
				0.054349422454833984,
				0.05434942618012428,
				0.054349422454833984
			]
		}
	],
	"materials":[
		{
			"doubleSided":true,
			"name":"Material.001",
			"pbrMetallicRoughness":{
				"baseColorTexture":{
					"index":0
				},
				"metallicFactor":0,
				"roughnessFactor":0.5
			}
		}
	],
	"meshes":[
		{
			"name":"Fast fusion 1",
			"primitives":[
				{
					"attributes":{
						"POSITION":0,
						"NORMAL":1,
						"TEXCOORD_0":2
					},
					"indices":3,
					"material":0
				}
			]
		}
	],
	"textures":[
		{
			"sampler":0,
			"source":0
		}
	],
	"images":[
		{
			"mimeType":"image/png",
			"name":"Fast fusion 1 Base Color",
			"uri":"Fast%20fusion%201%20Base%20Color.png"
		}
	],
	"accessors":[
		{
			"bufferView":0,
			"componentType":5126,
			"count":190511,
			"max":[
				0.43842923641204834,
				3.5975630283355713,
				0.4265134036540985
			],
			"min":[
				-0.44704127311706543,
				0.0418696403503418,
				-0.5061507821083069
			],
			"type":"VEC3"
		},
		{
			"bufferView":1,
			"componentType":5126,
			"count":190511,
			"type":"VEC3"
		},
		{
			"bufferView":2,
			"componentType":5126,
			"count":190511,
			"type":"VEC2"
		},
		{
			"bufferView":3,
			"componentType":5125,
			"count":191787,
			"type":"SCALAR"
		}
	],
	"bufferViews":[
		{
			"buffer":0,
			"byteLength":2286132,
			"byteOffset":0,
			"target":34962
		},
		{
			"buffer":0,
			"byteLength":2286132,
			"byteOffset":2286132,
			"target":34962
		},
		{
			"buffer":0,
			"byteLength":1524088,
			"byteOffset":4572264,
			"target":34962
		},
		{
			"buffer":0,
			"byteLength":767148,
			"byteOffset":6096352,
			"target":34963
		}
	],
	"samplers":[
		{
			"magFilter":9729,
			"minFilter":9987
		}
	],
	"buffers":[
		{
			"byteLength":6863500,
			"uri":"PeploskoreBasis3.bin"
		}
	]
}
