{
	"asset":{
		"generator":"Khronos glTF Blender I/O v4.3.47",
		"version":"2.0"
	},
	"scene":0,
	"scenes":[
		{
			"name":"Scene",
			"nodes":[
				0
			]
		}
	],
	"nodes":[
		{
			"mesh":0,
			"name":"Fast fusion 1"
		}
	],
	"meshes":[
		{
			"name":"Fast fusion 1",
			"primitives":[
				{
					"attributes":{
						"POSITION":0,
						"NORMAL":1
					},
					"indices":2
				}
			]
		}
	],
	"accessors":[
		{
			"bufferView":0,
			"componentType":5126,
			"count":820226,
			"max":[
				1.3899728059768677,
				4.313530445098877,
				0.498080313205719
			],
			"min":[
				-0.7825843095779419,
				0.006450653076171875,
				-0.9981487393379211
			],
			"type":"VEC3"
		},
		{
			"bufferView":1,
			"componentType":5126,
			"count":820226,
			"type":"VEC3"
		},
		{
			"bufferView":2,
			"componentType":5125,
			"count":820446,
			"type":"SCALAR"
		}
	],
	"bufferViews":[
		{
			"buffer":0,
			"byteLength":9842712,
			"byteOffset":0,
			"target":34962
		},
		{
			"buffer":0,
			"byteLength":9842712,
			"byteOffset":9842712,
			"target":34962
		},
		{
			"buffer":0,
			"byteLength":3281784,
			"byteOffset":19685424,
			"target":34963
		}
	],
	"buffers":[
		{
			"byteLength":22967208,
			"uri":"smallerzeus.bin"
		}
	]
}
